<svg xmlns="http://www.w3.org/2000/svg" viewBox="0 0 256 256" width="256" height="256">
  <defs>
    <linearGradient id="gradient" x1="0%" y1="0%" x2="100%" y2="100%">
      <stop offset="0%" style="stop-color:#6366f1;stop-opacity:1" />
      <stop offset="100%" style="stop-color:#8b5cf6;stop-opacity:1" />
    </linearGradient>
  </defs>

  <!-- Background -->
  <rect width="256" height="256" rx="32" fill="url(#gradient)"/>

  <!-- Human silhouette merged with circuit pattern -->
  <g fill="white">
    <!-- Head/Brain -->
    <circle cx="128" cy="70" r="25" fill="white" opacity="0.9"/>

    <!-- Circuit lines from brain -->
    <rect x="126" y="95" width="4" height="20" fill="white" opacity="0.8"/>
    <rect x="118" y="105" width="20" height="4" fill="white" opacity="0.8"/>

    <!-- Body as stylized "AI" letters -->
    <!-- Letter A -->
    <path d="M 100 120 L 85 180 L 95 180 L 100 165 L 120 165 L 125 180 L 135 180 L 120 120 Z M 105 155 L 110 135 L 115 155 Z" fill="white"/>

    <!-- Letter I -->
    <rect x="145" y="120" width="10" height="60" fill="white"/>
    <rect x="140" y="120" width="20" height="10" fill="white"/>
    <rect x="140" y="170" width="20" height="10" fill="white"/>

    <!-- Humanizing wave effect -->
    <path d="M 70 200 Q 90 190, 110 200 T 150 200 T 190 200" stroke="white" stroke-width="3" fill="none" opacity="0.6"/>
    <path d="M 70 210 Q 90 220, 110 210 T 150 210 T 190 210" stroke="white" stroke-width="3" fill="none" opacity="0.4"/>
  </g>

  <!-- Small dots for tech effect -->
  <circle cx="50" cy="50" r="3" fill="white" opacity="0.5"/>
  <circle cx="206" cy="50" r="3" fill="white" opacity="0.5"/>
  <circle cx="50" cy="206" r="3" fill="white" opacity="0.5"/>
  <circle cx="206" cy="206" r="3" fill="white" opacity="0.5"/>
</svg>